<?xml version="1.0" standalone="no"?>
<!DOCTYPE svg PUBLIC "-//W3C//DTD SVG 20010904//EN"
 "http://www.w3.org/TR/2001/REC-SVG-20010904/DTD/svg10.dtd">
<svg version="1.0" xmlns="http://www.w3.org/2000/svg"
 width="260.000000pt" height="260.000000pt" viewBox="0 0 260.000000 260.000000"
 preserveAspectRatio="xMidYMid meet">
<metadata>
Created by potrace 1.14, written by Peter Selinger 2001-2017
</metadata>
<g transform="translate(0.000000,260.000000) scale(0.100000,-0.100000)"
fill="#000000" stroke="none">
<path d="M0 1300 l0 -1300 1300 0 1300 0 0 1300 0 1300 -1300 0 -1300 0 0
-1300z m2350 1050 c59 -30 85 -74 85 -142 0 -64 -19 -97 -76 -136 -29 -20 -44
-23 -100 -20 -82 4 -129 35 -154 102 -22 58 -14 105 28 153 56 64 142 81 217
43z m-1365 -504 c55 -25 94 -65 126 -128 l20 -40 60 60 c33 33 88 75 122 93
59 32 67 34 167 34 97 0 108 -2 145 -26 55 -36 80 -66 107 -124 21 -48 22 -64
28 -415 7 -415 7 -414 78 -438 31 -10 42 -19 40 -31 -3 -14 -30 -16 -273 -16
-243 0 -270 2 -273 17 -2 11 8 20 31 27 19 7 45 23 58 37 l24 26 3 306 c4 376
0 425 -38 464 -51 50 -128 31 -212 -53 l-49 -49 3 -339 c3 -381 1 -369 80
-393 27 -8 38 -16 36 -27 -3 -14 -35 -16 -273 -16 -235 0 -270 2 -273 15 -2
10 10 20 32 28 20 7 45 25 56 39 19 25 20 39 20 375 0 390 -2 405 -63 434 -57
27 -99 13 -174 -60 l-64 -63 3 -324 c3 -371 5 -379 78 -399 29 -8 40 -16 40
-30 0 -19 -8 -20 -269 -20 -249 0 -270 1 -273 18 -3 12 8 21 37 32 75 28 75
31 74 465 0 436 -1 442 -66 464 -37 13 -60 41 -45 55 3 3 99 6 214 6 l208 0 0
-70 c0 -38 4 -70 8 -70 4 0 24 16 43 36 47 49 114 94 163 110 70 22 183 17
241 -10z m1445 -467 c6 -525 1 -498 82 -519 28 -8 38 -16 38 -30 0 -19 -9 -20
-285 -20 -265 0 -285 1 -285 18 0 11 17 23 53 37 79 30 78 28 75 480 -2 296
-6 386 -17 406 -14 28 -49 49 -81 49 -23 0 -34 15 -26 36 5 12 39 14 223 12
l218 -3 5 -466z"/>
</g>
</svg>
